<svg xmlns="http://www.w3.org/2000/svg" viewBox="0 0 3094 1841" preserveAspectRatio="xMidYMid slice" fill="none" aria-hidden="true">
  <g clip-path="url(#clip0)">
    <path d="M3572 891C3572 891 3572 891 2520.9 891C2077.55 891 1913.16 1561 1469.8 1561C1026.45 1561 862.061 891 418.706 891C311.451 891 -804 891 -804 891" stroke="#6F3FF3" stroke-width="24"/>
    <path d="M2960 891H2766.93C2323.54 891 2159.15 1296 1715.76 1296C1272.38 1296 1107.98 891 664.595 891C460.798 891 257 891 257 891" stroke="#90CDB7" stroke-width="24"/>
    <path d="M3275 891H2652.98C2209.67 891 2045.29 280 1601.98 280C1158.67 280 994.293 891 550.98 891C-500.02 891 -929 891 -929 891" stroke="#E8B370" stroke-width="24"/>
    <path d="M4142 891H2608.88C2113.77 891 1930.19 436 1435.08 436C939.974 436 756.397 891 261.288 891C-912.508 891 -553.183 891 -553.183 891" stroke="#E99762" stroke-width="24"/>
    <path d="M-372 891H409.904C867.547 891 1037.23 1295 1494.88 1295C1952.52 1295 2122.2 891 2579.85 891C3664.82 891 4454 891 4454 891" stroke="#4FAFC7" stroke-width="24"/>
  </g>
  <defs>
    <clipPath id="clip0">
      <rect width="3094" height="1841" fill="white"/>
    </clipPath>
  </defs>
</svg>
